<?xml version="1.0" encoding="utf-8"?>
<!-- Generator: Adobe Illustrator 25.0.0, SVG Export Plug-In . SVG Version: 6.00 Build 0)  -->
<svg version="1.1" id="Layer_1" xmlns="http://www.w3.org/2000/svg" xmlns:xlink="http://www.w3.org/1999/xlink" x="0px" y="0px"
	 viewBox="0 0 1928.35 120.52" style="enable-background:new 0 0 1928.35 120.52;" xml:space="preserve">
<style type="text/css">
	.st0{fill:none;}
	.st1{fill:#CFCFCE;}
	.st2{fill:#7B7B7B;}
	.st3{fill:#C4C4C4;}
	.st4{fill:#253A7C;}
	.st5{fill:#232F68;}
	.st6{fill:#989A9B;}
	.st7{fill:#FFFFFF;}
	.st8{enable-background:new    ;}
	.st9{fill:#707071;}
	.st10{fill:#939598;}
</style>
<g>
	<g>
		<path class="st0" d="M86.88,55.97c-0.2-0.02-0.41-0.02-0.61,0l-4.11,0.02l-1.42,8.99h4.37c2.73-0.1,4.54-1.99,4.73-5.41
			C90.02,57.76,88.69,56.15,86.88,55.97z"/>
		<path class="st0" d="M110.46,65.64c-3.24,0.07-5.99,2.41-6.58,5.61c-0.06,0.34-0.08,0.68-0.07,1.02c0.11,2.64,2.33,4.69,4.97,4.59
			c3.24-0.07,5.99-2.41,6.58-5.61c0.06-0.34,0.08-0.68,0.07-1.02C115.33,67.59,113.1,65.53,110.46,65.64z"/>
		<path class="st1" d="M47.28,51.51c-1.29,8.58-6.32,13.8-13.14,14.94c-0.02,0-0.04,0-0.05,0.01c-0.45,0.07-0.91,0.14-1.37,0.18
			c-0.52,0.05-1.05,0.07-1.59,0.07h-7.08c-0.03,0-0.05,0.01-0.08,0.01c-0.14,0-0.27,0.03-0.4,0.06c-0.83,0.21-1.42,0.95-1.73,2.48
			l-2.86,18.12c-0.22,1.41,0.08,2.06,0.93,2.06h9.03c0.56-0.05,0.93-0.47,1.04-1.17l1.65-10.87c0.28-1.87,0.99-2.56,2.03-2.56h3.84
			c7.61,0,13.35-5.25,14.09-14.74C51.89,56.14,50.61,53.06,47.28,51.51z"/>
		<path class="st2" d="M122.64,60.56h-5.24c-0.47,0-0.7,0.27-0.83,0.99l-0.19,1.13c-0.1,0.59-0.37,0.69-0.62,0.1
			c-0.89-2.1-3.15-3.05-6.33-2.98c-7.35,0.15-12.3,5.73-12.83,12.88c-0.56,4.86,2.92,9.25,7.77,9.81c0.33,0.04,0.67,0.06,1,0.06
			c2.76,0.17,5.46-0.87,7.39-2.86l0.01,0c0.49-0.45,0.99-0.68,0.92-0.13l-0.17,1.32c-0.09,0.68,0.18,1.05,0.82,1.05h4.76
			c0.8,0,1.19-0.32,1.39-1.56l2.93-18.42C123.57,61.02,123.35,60.56,122.64,60.56z M115.37,71.25c-0.58,3.19-3.33,5.53-6.58,5.61
			c-2.64,0.11-4.87-1.95-4.97-4.59c-0.01-0.34,0.01-0.68,0.07-1.02c0.58-3.19,3.33-5.53,6.58-5.61c2.64-0.11,4.87,1.95,4.97,4.59
			C115.45,70.57,115.43,70.91,115.37,71.25z"/>
		<path class="st2" d="M89.48,49.78l-12.84,0c-0.95,0-1.48,0.52-1.7,1.92l-4.43,28.4c-0.19,1.22,0.11,1.77,0.96,1.77h5.36
			c0.81,0,1.36-0.53,1.53-1.6l1.11-7.09c0.22-1.38,0.62-2.06,1.45-2.06h5.76c6.59-0.02,10.79-4.35,11.52-12.14
			C98.82,52.41,94.33,49.78,89.48,49.78z M85.11,64.98h-4.37l1.42-8.99l4.11-0.02c0.2-0.02,0.41-0.02,0.61,0
			c1.81,0.18,3.14,1.79,2.96,3.6C89.66,62.99,87.84,64.88,85.11,64.98z"/>
		<path class="st2" d="M152.39,60.49h-5.13c-0.88,0-1.24,0.34-1.74,1.08l-7.69,11.16l-3.42-11.18c-0.21-0.72-0.91-1.17-1.65-1.05
			h-4.81c-1,0-1.4,0.73-1.09,1.66l6,17.56l-5.91,8.35c-0.49,0.7-0.11,1.34,0.58,1.34h5.44c0.65,0.08,1.28-0.23,1.61-0.79
			l18.44-26.45C153.59,61.34,153.32,60.49,152.39,60.49z"/>
		<g>
			<path class="st1" d="M205.37,60.56h-5.24c-0.47,0-0.7,0.27-0.82,0.99l-0.19,1.13c-0.1,0.59-0.37,0.69-0.62,0.1
				c-0.89-2.1-3.15-3.05-6.33-2.98c-7.35,0.15-12.3,5.73-12.83,12.88c-0.56,4.86,2.92,9.25,7.77,9.81c0.33,0.04,0.67,0.06,1,0.06
				c2.76,0.17,5.46-0.87,7.39-2.86l0,0c0.49-0.45,0.99-0.68,0.92-0.13l-0.17,1.32c-0.09,0.68,0.18,1.05,0.82,1.05h4.76
				c0.8,0,1.19-0.32,1.39-1.56l2.94-18.42C206.3,61.02,206.07,60.56,205.37,60.56z M198.09,71.25c-0.58,3.19-3.33,5.53-6.58,5.61
				c-2.64,0.11-4.87-1.95-4.97-4.59c-0.01-0.34,0.01-0.68,0.07-1.02c0.58-3.19,3.33-5.53,6.58-5.61c2.64-0.11,4.87,1.95,4.97,4.59
				C198.17,70.57,198.15,70.91,198.09,71.25z"/>
			<path class="st1" d="M218.55,49.83h-5.5c-0.45,0.01-0.83,0.32-0.91,0.76l-4.83,30.6c-0.01,0.05-0.01,0.1-0.01,0.15
				c0.02,0.36,0.33,0.63,0.69,0.61h5.5l0,0.01c0.45-0.01,0.83-0.33,0.92-0.77l4.83-30.6c0.01-0.05,0.01-0.1,0.01-0.15
				C219.21,50.08,218.91,49.81,218.55,49.83z"/>
			<path class="st1" d="M172.2,49.78l-12.83,0c-0.95,0-1.48,0.52-1.7,1.92l-4.43,28.4c-0.19,1.22,0.11,1.77,0.96,1.77h5.36
				c0.81,0,1.36-0.53,1.53-1.6l1.11-7.09c0.22-1.38,0.61-2.06,1.45-2.06h5.76c6.59-0.02,10.79-4.35,11.52-12.14
				C181.54,52.41,177.06,49.78,172.2,49.78z M167.84,64.98h-4.37l0.01,0l1.41-8.99l4.11-0.02c0.2-0.02,0.41-0.02,0.61,0
				c1.81,0.18,3.14,1.79,2.96,3.6C172.38,62.99,170.57,64.88,167.84,64.98z"/>
		</g>
		<path class="st3" d="M21.97,68.41l2.52-15.93c0.05-0.92,0.66-1.67,1.47-1.96c0.04-0.01,0.08-0.01,0.12-0.02
			c0.12-0.03,0.24-0.06,0.36-0.08c0,0,0,0,0,0c0.12-0.02,0.24-0.03,0.37-0.02c0,0,0.01,0,0.01,0c0,0,0,0,0,0
			c0.06,0,0.11,0.01,0.17,0.02h14.39h0c0,0,0,0,0,0c0.85-0.03,1.69,0.04,2.53,0.16c0.07,0.01,0.13,0.02,0.2,0.03
			c0.17,0.03,0.34,0.06,0.51,0.1c0.96,0.18,1.82,0.43,2.57,0.77c0,0,0,0,0.01,0c0,0,0,0,0,0c0.03,0.01,0.06,0.02,0.08,0.04
			c0.1-0.64,0.17-1.29,0.23-1.97c0.33-3.04-0.79-6.07-3.02-8.16c-3.22-2.84-8.03-2.97-12.09-2.97H18c-0.08-0.01-0.16-0.02-0.24-0.02
			c-1.41-0.07-2.6,1.02-2.67,2.42L8.69,81.27c-0.26,1.63,0.09,2.38,1.08,2.38h8.88c0.65-0.06,1-0.54,1.13-1.36l1.98-12.62
			c0.02-0.15,0.06-0.28,0.08-0.42l0.14-0.86C21.98,68.4,21.97,68.41,21.97,68.41z"/>
		<polygon class="st4" points="41.39,50.42 41.39,50.42 41.39,50.42 		"/>
		<path class="st4" d="M23.98,66.72c0.03,0,0.05-0.01,0.08-0.01h-0.03C24.01,66.71,23.99,66.72,23.98,66.72z"/>
		<polygon class="st5" points="47.2,51.48 47.2,51.48 47.2,51.48 		"/>
		<path class="st2" d="M47.2,51.48C47.2,51.48,47.2,51.48,47.2,51.48c-0.84-0.35-1.7-0.59-2.58-0.77c-0.17-0.03-0.34-0.07-0.51-0.1
			c-0.07-0.01-0.13-0.02-0.2-0.03c-0.78-0.11-1.62-0.16-2.53-0.16c0,0,0,0,0,0H26.99h0c-0.06-0.01-0.11-0.01-0.17-0.02
			c-0.13-0.01-0.26,0-0.38,0.02c0,0,0,0,0,0c-0.12,0.02-0.25,0.05-0.36,0.08c-0.04,0.01-0.08,0-0.12,0.02
			c-0.81,0.29-1.41,1.04-1.47,1.95L21.98,68.4c0.35-1,0.89-1.48,1.6-1.62c0.13-0.03,0.26-0.06,0.4-0.06c0.02,0,0.03-0.01,0.05-0.01
			h0.03c0.02,0,0.04-0.01,0.06-0.01h7.11c0.51,0,1.01-0.03,1.5-0.07c0.47-0.04,0.92-0.1,1.37-0.18c0.02,0,0.04,0,0.05-0.01
			C40.93,65.28,45.94,60.05,47.2,51.48z"/>
	</g>
	<g>
		<path class="st1" d="M309.33,97.43c-0.03-0.79,0.07-1.57,0.31-2.32l10.09-43.34c-0.09-0.02-0.18-0.03-0.3-0.03
			c-0.46,0.04-0.9,0.18-1.3,0.41c-0.24,0.87-0.73,3.3-0.96,4.41c-0.5,2.34-0.53,2.61-0.75,3.76l-0.14,0.16
			c-1.77-0.03-2.39-0.03-4.43,0.08l-0.09-0.17c0.34-1.38,0.68-2.79,1-4.17c0.58-2.34,1.01-4.72,1.29-7.12l0.17-0.11
			c1.99-0.28,2.47-0.34,4.63-0.77l0.18,0.2l-0.34,1.2c0.37-0.22,0.72-0.44,1.08-0.63c0.21-0.1,0.44-0.15,0.66-0.23l5.13-22.02
			c1.28-4.92,5.6-8.43,10.67-8.69h-31.36c-5.08,0.24-9.41,3.76-10.68,8.69l-15.94,68.39c-0.23,0.74-0.34,1.51-0.31,2.28
			c0.15,3.68,3.25,6.54,6.93,6.39h31.37C312.6,103.94,309.5,101.1,309.33,97.43z M306.51,59.12c-1.9,1.02-4.04,1.52-6.2,1.45
			c-1.87,0-5.18-0.3-6.34-2.33c-0.38-0.71-0.57-1.51-0.54-2.32l0.42-3.12l0.22-0.95l2.55-11.25c0,0,0.12-0.62,0.15-0.73
			c1.92,0.18,3.85,0.2,5.78,0.08c-0.01,0.05-0.02,0.1-0.04,0.15c-0.45,1.32-2.94,11.29-2.94,11.3c0,0.02-0.48,2.98-0.48,2.98
			l0.03,0.51c0,0.07,0.01,0.14,0.02,0.21c0.16,1.28,1.32,2.19,2.6,2.03c0.92,0.02,1.82-0.29,2.53-0.88
			c1.26-1.02,1.64-2.61,2.15-4.81c0.01-0.02,2.38-10.96,2.51-11.57c1.62,0.13,3.25,0.15,4.88,0.07c-0.02,0.05-0.04,0.1-0.05,0.15
			c-0.44,1.36-3,11.72-3,11.72l-0.29,1.12C310.07,55.45,308.63,57.69,306.51,59.12z"/>
		<polygon class="st6" points="352.48,72.78 352.09,74.04 352.35,74.04 352.64,72.78 		"/>
		<path class="st6" d="M349.72,82.05c-0.16,0.55-0.23,0.81-0.13,0.96c0.13,0.18,0.34,0.28,0.57,0.28l0.03,0l1.58-6.77h-0.37
			L349.72,82.05z"/>
		<path class="st6" d="M352.81,71.64c0.03-0.03,0.07-0.05,0.11-0.08l0.3-1.27L352.81,71.64z"/>
		<path class="st6" d="M339.1,18.03h-2.86c-5.07,0.25-9.4,3.77-10.67,8.69l-5.13,22.02c0.68-0.24,1.38-0.4,2.1-0.42
			c1.01-0.12,1.99,0.43,2.41,1.36c0.41,0.97,0.14,2.17-0.4,4.53l-0.28,1.2c-0.55,2.62-0.64,3.11-0.95,4.91l-0.2,0.14
			c-1.72-0.03-2.33-0.03-4.34,0.08l-0.07-0.15c0.17-0.77,0.36-1.53,0.54-2.3l0.25-1.05c0.37-1.63,0.73-3.52,0.77-4.1
			c0.03-0.3,0.13-1.02-0.54-1.18l-10.09,43.34c-0.24,0.75-0.35,1.54-0.31,2.32c0.16,3.67,3.27,6.51,6.94,6.35h2.84h34.96
			c-3.67,0.16-6.78-2.69-6.93-6.37c-0.03-0.78,0.07-1.56,0.31-2.31l2.1-9.03h-0.59c-0.93,0-1.61-0.02-2.09-0.06
			c-0.43,0.03-0.86-0.05-1.24-0.24c-0.27-0.24-0.68-0.56-0.68-0.88c0.08-0.5,0.19-1,0.34-1.48l5.34-17.7h3.67l1.23-5.27
			c-0.69,0.01-1.37,0.03-2.51,0.09l-0.07-0.15c0.17-0.77,0.37-1.53,0.55-2.3l0.23-1.05c0.33-1.35,0.59-2.72,0.78-4.1
			c0.04-0.34,0.16-1.21-0.83-1.21c-0.46,0.04-0.9,0.18-1.3,0.41c-0.23,0.87-0.73,3.3-0.97,4.41c-0.48,2.34-0.51,2.61-0.74,3.76
			l-0.15,0.16c-1.77-0.03-2.38-0.03-4.42,0.08l-0.09-0.17c0.34-1.38,0.68-2.79,1-4.17c0.57-2.35,1-4.72,1.29-7.12l0.15-0.11
			c1.99-0.28,2.48-0.34,4.63-0.77l0.17,0.2l-0.31,1.2c0.36-0.22,0.72-0.44,1.08-0.63c0.87-0.41,1.81-0.63,2.77-0.65
			c0.53-0.06,1.05,0.07,1.49,0.33l5.11-21.94c1.27-4.92,5.59-8.44,10.67-8.69H339.1z M333.53,54.64c0.3-1.69,1.1-3.25,2.3-4.47
			c1.36-1.15,3.08-1.76,4.85-1.77c0.11,0,0.22-0.02,0.33-0.02c1.53-0.15,3.05,0.41,4.12,1.52c0.59,0.75,1.06,1.99,0.46,4.63
			c-0.31,1.47-0.95,2.86-1.89,4.04c-1.45,1.46-3.44,2.24-5.49,2.15c-0.13,0-0.26-0.02-0.39-0.03c-0.82-0.02-1.63-0.15-2.4-0.43
			C332.73,59.18,333.16,56.26,333.53,54.64z M328.51,47.85c1.12-0.79,2.56-0.95,3.82-0.4c0.96,0.57,0.82,1.66-0.32,2.45
			c-1.11,0.79-2.55,0.94-3.8,0.41C327.24,49.72,327.37,48.63,328.51,47.85z M325.95,58.67c0.21-0.56,0.37-1.13,0.49-1.72
			c0.3-1.32,0.49-2.24,0.61-3.05c0.14-0.78,0.22-1.45,0.32-2.21l0.07-0.06l0.08-0.07c1.03-0.14,1.69-0.24,2.36-0.35
			c0.67-0.11,1.36-0.23,2.43-0.43l0.04,0.09l0.03,0.1c-0.2,0.82-0.4,1.63-0.6,2.46c-0.2,0.83-0.39,1.64-0.57,2.46
			c-0.38,1.73-0.54,2.38-0.63,2.85c-0.09,0.44-0.11,0.68-0.27,1.57l-0.1,0.08l-0.09,0.07c-1.04,0-1.71-0.03-2.36,0
			c-0.65,0.03-1.28,0.04-2.25,0.08l-0.05-0.08l-0.06-0.09C325.55,59.79,325.73,59.23,325.95,58.67z M346.99,74.45h-4.36l-0.68,2.22
			h4.46l-0.81,2.68h-4.46l-1.09,3.61c-0.13,0.4,1.06,0.45,1.49,0.45l2.23-0.31l-0.9,2.97h-5.03c-0.39-0.01-0.77-0.06-1.14-0.16
			c-0.34-0.07-0.63-0.28-0.8-0.58c-0.3-0.31-0.41-0.76-0.27-1.17l1.45-4.78h-2.48l0.82-2.73h2.49l0.66-2.22h-2.47l0.78-2.6h10.91
			L346.99,74.45z M348.71,67.17l-0.81,2.72h-6.12l-0.66,0.57c-0.29,0.28-0.38,0.17-0.76,0.36c-0.62,0.33-1.31,0.5-2.01,0.51h-1.96
			l0.79-2.61h0.59c0.34,0.03,0.69-0.02,1.01-0.15c0.28-0.23,0.5-0.52,0.65-0.85l1.13-2.04h4.44l-0.78,1.49H348.71z"/>
		<path class="st6" d="M340.4,51.08c-0.13,0-0.25,0.03-0.36,0.06c-1.1,0.28-1.58,1.82-1.99,3.63c-0.17,0.64-0.26,1.3-0.28,1.96
			c0.01,0.84,0.38,1.12,0.68,1.21c0.15,0.05,0.28,0.05,0.33,0.05c0.54-0.05,1.02-0.36,1.29-0.84c0.49-0.87,0.83-1.82,1-2.81
			C341.55,52.33,341.47,51.08,340.4,51.08z"/>
		<path class="st2" d="M373.36,76.37l0.78-2.57h-3.23h0l-1.11,3.67c0.61-0.31,1.24-0.59,1.88-0.83
			C372.35,76.49,373.36,76.37,373.36,76.37z"/>
		<polygon class="st2" points="372.48,79.26 369.27,79.26 368.33,82.36 371.56,82.36 		"/>
		<path class="st2" d="M374.96,71.1l0.78-2.57h-3.22l-1.07,3.53c0.6-0.28,1.22-0.52,1.85-0.72C373.84,71.21,374.4,71.13,374.96,71.1
			z"/>
		<path class="st2" d="M359.57,70.11l0.45-1.5h-6.3l-0.51,1.69l-0.3,1.27c0.93-0.73,2.03-1.21,3.2-1.4
			C356.6,70.08,359.57,70.11,359.57,70.11z"/>
		<path class="st2" d="M408.26,18.03h-32.66h-1.55c-5.08,0.24-9.4,3.77-10.67,8.69l-5.11,21.94c0.4,0.24,0.73,0.59,0.93,1.03
			c0.4,0.97,0.13,2.17-0.41,4.53l-0.27,1.2c-0.57,2.62-0.65,3.11-0.95,4.91l-0.22,0.14c-0.75-0.01-1.29-0.02-1.82-0.01l-1.23,5.27
			h0.15l-0.56,1.92c0.63-0.51,1.32-0.95,2.05-1.31c0.9-0.26,1.81-0.46,2.74-0.59l6.17-0.04l-2.1,7c-0.22,0.82-0.56,1.61-1.02,2.33
			c-0.25,0.41-0.61,0.74-1.04,0.96c-0.44,0.25-0.93,0.42-1.43,0.48c-0.41,0.03-1.03,0.04-1.9,0.05h-5.57l-1.58,6.77l2.59-0.24
			l-0.9,3.04h-2.34l-2.1,9.03c-0.24,0.74-0.34,1.53-0.31,2.31c0.16,3.67,3.26,6.52,6.93,6.37h1.54h32.65
			c5.08-0.24,9.41-3.76,10.69-8.67l15.93-68.39c0.24-0.75,0.35-1.53,0.31-2.32C415.04,20.72,411.93,17.87,408.26,18.03z
			 M383.82,48.65c0.72,0.28,1.17,0.73,1.49,1.25c0.02-0.17,0.05-0.34,0.07-0.5l0.16-0.13c2.07-0.29,2.64-0.38,4.79-0.77l0.06,0.18
			c-0.39,1.63-0.78,3.25-1.16,4.88c-0.79,3.41-1.08,5.15-1.38,6.93l-0.19,0.15c-2.08-0.02-2.67-0.02-4.59,0.06l-0.12-0.16
			c0.07-0.25,0.13-0.5,0.2-0.76c-0.71,0.6-1.46,1.03-2.28,1.07c-0.82,0.05-1.64-0.1-2.39-0.43c-2.67-1.04-2.24-3.95-1.87-5.55
			c0.29-1.68,1.09-3.23,2.29-4.44C380.15,49.08,381.98,48.42,383.82,48.65z M360.17,60.52l3.34-13.75c0-0.01,1.33-6.19,1.33-6.19
			s0.1-0.48,0.15-0.75c0.61,0.07,2.1,0.09,5.83,0.04l1.43-0.01c0.61,0,1.2,0.01,1.78,0.03c2.13,0.08,3.91,0.39,4.9,1.78
			c0.48,0.7,0.72,1.53,0.68,2.38c0,0.63-0.08,1.25-0.23,1.86c-0.44,2.13-1.63,4.02-3.36,5.34c-1.51,1.11-3.26,1.54-5.04,1.71
			c-1.15,0.11-2.3,0.11-3.4,0.11h-0.3c-0.16,0.11-0.29,0.24-0.4,0.39c-0.04,0.1-0.67,2.79-0.68,2.79c-0.01,0-0.76,3.67-0.89,4.29
			C364.75,60.48,363.42,60.48,360.17,60.52z M353.33,85.67c-0.39-0.25-0.44-0.56-0.44-1.09l0.15-7.41h3.7l-0.05,1.52h0.89
			c0.22,0.02,0.44-0.02,0.64-0.11c0.12-0.1,0.21-0.23,0.25-0.38l0.37-1.19l2.9,0l-0.36,1.68c-0.09,0.48-0.32,0.92-0.68,1.26
			c-0.55,0.51-1.29,0.78-2.05,0.73l-2.12,0.09l-0.02,1.9c-0.02,0.54,0.12,0.48,0.21,0.57c0.08,0.08,0.17,0.13,0.28,0.17l0.68-0.04
			l2.02-0.11l-0.84,2.77h-2.32C355.47,86.14,354.37,86.02,353.33,85.67z M374.35,86.06h-3.97l0.27-0.88h-7.17h-0.89l0.81-2.64h0.69
			h0.13l4.23-14.02l0.85-2.83h4.05l-0.42,1.42c0.64-0.45,1.35-0.8,2.1-1.04c0.84-0.22,5.01-0.33,6.42-0.36l0-0.02h4.33l0.04,1.61
			c-0.03,0.27,0.21,0.4,0.71,0.4h0.88l-0.81,2.66h-2.34c-2.02,0.14-2.79-0.72-2.74-1.7l-0.04-1.56l-0.43,1.4h-1.38l0,0l-4.17,13.8
			h1.13l-0.87,2.85h-1.11L374.35,86.06z M392.24,73.8h-4.34l-0.68,2.16h4.35l-0.72,2.36h-4.7l-0.84,1h1.91l0.47,2.98
			c0.01,0.21,0.06,0.42,0.15,0.62c0.32,0.12,0.66,0.18,1,0.16h0.58l-0.88,2.9h-1.47c-0.22,0-0.56-0.02-1.03-0.04
			c-0.38-0.08-0.73-0.23-1.05-0.45c-0.4-0.19-0.69-0.57-0.77-1.01l-0.46-2.97l-2.14,2.93c-0.69,1.06-1.89,1.68-3.15,1.64h-2.99
			l0.78-2.59h1.14c0.29-0.01,0.58-0.1,0.84-0.24c0.26-0.1,0.48-0.29,0.63-0.53l3.13-4.4h-4.12l0.71-2.36h4.71l0.67-2.16h-4.65
			l0.79-2.67h12.94L392.24,73.8z M394.98,65.57l-0.18,0.2h0.03l-1.67,2.86c-0.6,1.12-1.8,1.79-3.07,1.72l-2.66-0.04l0.78-2.58h0.52
			c0.21,0.02,0.42-0.01,0.61-0.09c0.14-0.06,0.26-0.17,0.34-0.31l0.94-1.49l-0.01-0.02c1.34-2.01,1.67-2.88,3.06-5.17
			c-0.25-2.57-0.36-3.39-0.56-5.07c-0.12-1-0.28-2.02-0.4-3.04c-0.09-1.04-0.25-2.07-0.45-3.09l-0.01-0.03
			c0.01-0.08,0.02-0.15,0.04-0.23l0.16-0.14c2.06-0.26,2.11-0.33,4.33-0.76l0.19,0.19l0.3,5.72c0.01,0.13,0.01,0.2,0.01,0.32
			c1.18-2.64,1.14-1.91,2.59-5.27v0.03c0.01-0.03,0.02-0.07,0.02-0.09l0.14-0.14c1.95-0.26,2.34-0.33,4.46-0.76l0.17,0.19
			C404.65,48.48,396.09,63.15,394.98,65.57z"/>
		<g>
			<path class="st2" d="M373.2,43.4c-0.12-0.08-0.25-0.16-0.39-0.22l-2.99-0.26l-0.57-0.06l-0.02,0.24l-0.05,0.32
				c0.01-0.02-1.41,6.14-1.41,6.14l-0.06,0.31h0.77c1.12,0.08,2.24-0.09,3.28-0.51c0.02-0.01,0.03-0.02,0.05-0.03
				c1.17-0.63,2.01-1.74,2.28-3.05v0C374.52,45.21,374.12,44.02,373.2,43.4z"/>
			<path class="st2" d="M383.47,51.35c-1.37,0-1.89,1.66-2.35,3.63c-0.17,0.64-0.26,1.3-0.28,1.96c0.03,1.24,0.87,1.24,1.01,1.24
				c0.64-0.03,1.25-0.32,1.67-0.81c0.21-0.39,0.39-0.8,0.55-1.21c0.13-0.52,0.26-1.04,0.39-1.56c0.09-0.39,0.16-0.78,0.25-1.16
				C384.77,52.12,384.32,51.34,383.47,51.35z"/>
		</g>
		<path class="st2" d="M358.32,74.03l0.4-1.24l0.01,0h-6.08l-0.29,1.26h5.14C357.77,74.01,358.04,74.01,358.32,74.03z"/>
		<polygon class="st7" points="362.59,85.18 363.47,85.18 364.09,82.54 363.39,82.54 		"/>
		<path class="st7" d="M381.9,65.72c0,0-0.18,0-0.47,0.01l0.04,1.4L381.9,65.72z"/>
		<path class="st7" d="M384.07,56.16c0.2-0.52,0.36-1.05,0.47-1.59c0.09-0.42,0.14-0.79,0.16-1.13c-0.08,0.39-0.15,0.78-0.25,1.16
			C384.33,55.12,384.2,55.64,384.07,56.16z"/>
		<path class="st7" d="M357.34,60.46l0.22-0.14c0.3-1.8,0.39-2.28,0.95-4.91l0.27-1.2c0.54-2.36,0.82-3.56,0.41-4.53
			c-0.2-0.44-0.54-0.79-0.93-1.03l-2.75,11.8C356.05,60.44,356.58,60.45,357.34,60.46z"/>
		<path class="st7" d="M390.62,65.84l0.08,0.17c2-0.07,2.47-0.07,3.95-0.07l0.14-0.16h-4.13L390.62,65.84z"/>
	</g>
	<g class="st8">
		<path class="st9" d="M491.94,67.29h-4l-5.32-8.03v8.03h-3.99V52.92h3.99l5.32,8.13v-8.13h4V67.29z"/>
		<path class="st9" d="M498.64,56.12v2.34h4.59v3.04h-4.59v2.59h5.2v3.2h-9.19V52.92h9.19v3.2H498.64z"/>
		<path class="st9" d="M517.07,52.92v3.18h-3.83v11.19h-4V56.1h-3.79v-3.18H517.07z"/>
		<path class="st9" d="M530.17,61.16c0.5,0.65,0.74,1.38,0.74,2.21c0,1.22-0.42,2.18-1.26,2.87c-0.84,0.69-2.03,1.04-3.55,1.04
			h-7.11V52.92h6.89c1.47,0,2.62,0.33,3.46,0.98c0.84,0.65,1.25,1.57,1.25,2.75c0,0.84-0.22,1.55-0.66,2.11
			c-0.44,0.57-1.03,0.95-1.76,1.15C529,60.1,529.67,60.52,530.17,61.16z M522.98,58.63H525c1.01,0,1.51-0.41,1.51-1.24
			c0-0.86-0.5-1.28-1.51-1.28h-2.02V58.63z M526.81,62.81c0-0.43-0.13-0.77-0.4-1c-0.27-0.23-0.64-0.35-1.13-0.35h-2.3v2.61h2.32
			C526.31,64.07,526.81,63.65,526.81,62.81z"/>
		<path class="st9" d="M542.18,64.95h-5.1l-0.77,2.34h-4.2l5.24-14.37h4.61l5.22,14.37h-4.22L542.18,64.95z M541.19,61.89
			l-1.55-4.65l-1.53,4.65H541.19z"/>
		<path class="st9" d="M562.22,67.29h-3.99l-5.32-8.03v8.03h-4V52.92h4l5.32,8.13v-8.13h3.99V67.29z"/>
		<path class="st9" d="M573.44,67.29l-4.51-6.3v6.3h-3.99V52.92h3.99v6.2l4.46-6.2H578l-5.28,6.97l5.54,7.4H573.44z"/>
		<path class="st9" d="M584.16,52.92v14.37h-3.99V52.92H584.16z"/>
		<path class="st9" d="M600.18,67.29h-3.99l-5.32-8.03v8.03h-4V52.92h4l5.32,8.13v-8.13h3.99V67.29z"/>
		<path class="st9" d="M612.07,57.65c-0.23-0.38-0.55-0.67-0.95-0.88c-0.4-0.2-0.87-0.31-1.42-0.31c-1.01,0-1.8,0.33-2.37,0.98
			c-0.58,0.65-0.87,1.53-0.87,2.63c0,1.24,0.31,2.18,0.93,2.82c0.62,0.65,1.52,0.97,2.7,0.97c1.4,0,2.4-0.63,3-1.9h-4.02V59.1h7.46
			v3.87c-0.31,0.76-0.77,1.47-1.38,2.14c-0.6,0.67-1.37,1.21-2.29,1.64c-0.92,0.43-1.98,0.64-3.16,0.64c-1.44,0-2.71-0.31-3.82-0.93
			c-1.11-0.62-1.96-1.48-2.57-2.59c-0.61-1.11-0.91-2.38-0.91-3.8c0-1.41,0.3-2.67,0.91-3.78c0.6-1.11,1.46-1.97,2.56-2.59
			c1.1-0.62,2.37-0.93,3.81-0.93c1.81,0,3.3,0.43,4.48,1.3c1.18,0.87,1.92,2.06,2.2,3.57H612.07z"/>
	</g>
	<g id="g3051" transform="translate(376.956 -123.529)">
		<g id="layer1" transform="translate(6.044 135.793)">
			<path id="path2997" class="st2" d="M314.41,44c0.08,4.84,3.04,9.17,7.53,11c-0.91,2.75-2.21,5.36-3.88,7.73
				c-2.34,3.31-4.77,6.61-8.59,6.68c-3.76,0.07-4.97-2.16-9.26-2.16c-4.29,0-5.64,2.09-9.19,2.23c-3.69,0.14-6.5-3.58-8.86-6.88
				c-4.82-6.75-8.49-19.07-3.56-27.38c2.43-4.13,6.82-6.71,11.61-6.81c3.63-0.07,7.04,2.36,9.26,2.36c2.22,0,6.37-2.92,10.74-2.49
				c4.07,0.13,7.85,2.11,10.26,5.39C316.79,35.81,314.5,39.73,314.41,44 M307.35,23.8c2.11-2.38,3.16-5.51,2.92-8.68
				c-3.17,0.29-6.12,1.76-8.27,4.12c-2.12,2.27-3.2,5.31-2.98,8.41C302.24,27.7,305.31,26.28,307.35,23.8"/>
		</g>
		<g id="text3006" transform="translate(41.044 138.025)">
			<path id="path2995" class="st2" d="M300.71,17.63c1.45-0.24,3.06-0.46,4.81-0.66c1.92-0.2,3.85-0.3,5.78-0.29
				c2.63-0.05,5.25,0.31,7.77,1.06c1.99,0.6,3.83,1.64,5.37,3.04c1.21,1.19,2.17,2.61,2.81,4.18c0.71,1.77,1.05,3.67,1.02,5.57
				c0.05,2.3-0.42,4.58-1.39,6.67c-0.89,1.86-2.19,3.5-3.79,4.8c-1.69,1.34-3.63,2.32-5.71,2.89c-2.35,0.65-4.77,0.98-7.21,0.95
				c-1.99,0.03-3.98-0.14-5.93-0.51v21.12h-3.53L300.71,17.63z M304.24,42.28c0.93,0.26,1.89,0.43,2.85,0.51
				c1.05,0.1,2.18,0.15,3.38,0.15c3.74,0.24,7.45-0.85,10.47-3.08c2.57-2.27,3.95-5.6,3.72-9.02c0.04-1.71-0.29-3.42-0.98-4.99
				c-0.62-1.38-1.57-2.58-2.78-3.48c-1.29-0.95-2.74-1.64-4.28-2.05c-1.79-0.48-3.63-0.72-5.48-0.7c-1.38-0.01-2.76,0.05-4.13,0.18
				c-1.15,0.12-2.08,0.26-2.78,0.4L304.24,42.28z"/>
			<path id="path2998" class="st2" d="M356.33,58.12c0,1.42,0.02,2.83,0.07,4.25c0.05,1.38,0.2,2.75,0.45,4.11h-3.3l-0.52-4.97
				h-0.15c-0.5,0.74-1.08,1.43-1.73,2.05c-0.74,0.71-1.56,1.34-2.44,1.87c-0.99,0.59-2.05,1.05-3.15,1.36
				c-1.26,0.35-2.56,0.52-3.87,0.51c-1.58,0.03-3.15-0.26-4.62-0.85c-1.23-0.5-2.34-1.25-3.27-2.21c-0.85-0.9-1.5-1.96-1.91-3.12
				c-0.42-1.13-0.63-2.32-0.64-3.52c-0.12-3.95,1.95-7.64,5.37-9.61c3.58-2.25,8.97-3.33,16.18-3.23v-0.95
				c-0.01-1.07-0.1-2.14-0.26-3.19c-0.18-1.2-0.57-2.35-1.16-3.41c-0.65-1.13-1.58-2.06-2.7-2.72c-1.5-0.8-3.18-1.19-4.88-1.1
				c-3.12,0.02-6.17,0.93-8.78,2.64l-1.13-2.57c1.52-1.03,3.19-1.81,4.96-2.31c1.74-0.47,3.53-0.7,5.33-0.7
				c2.11-0.08,4.21,0.34,6.12,1.25c1.49,0.75,2.76,1.86,3.72,3.23c0.91,1.34,1.53,2.85,1.84,4.44c0.32,1.61,0.49,3.24,0.49,4.88
				L356.33,58.12z M352.8,47.63c-1.99-0.05-3.99,0.03-5.97,0.22c-1.96,0.17-3.89,0.6-5.74,1.28c-1.66,0.6-3.16,1.59-4.35,2.9
				c-1.2,1.41-1.82,3.22-1.73,5.06c-0.17,2.07,0.63,4.11,2.18,5.5c1.37,1.14,3.1,1.77,4.88,1.76c1.33,0.02,2.65-0.18,3.91-0.59
				c1.08-0.35,2.1-0.89,3-1.58c0.82-0.63,1.55-1.39,2.14-2.24c0.56-0.79,1-1.65,1.31-2.57c0.2-0.69,0.33-1.41,0.38-2.13L352.8,47.63
				z"/>
			<path id="path3000" class="st2" d="M363.23,31.27l9.16,22.88c0.5,1.27,0.98,2.58,1.43,3.92c0.45,1.34,0.85,2.58,1.2,3.7h0.15
				c0.35-1.08,0.75-2.29,1.2-3.63c0.45-1.34,0.95-2.73,1.5-4.15l8.56-22.73h3.75L379.75,57.1c-1.05,2.74-2.04,5.22-2.97,7.44
				c-0.93,2.22-1.86,4.23-2.81,6.01c-0.86,1.64-1.82,3.22-2.89,4.73c-0.94,1.33-2.03,2.53-3.27,3.59c-1.16,1.06-2.46,1.96-3.86,2.68
				c-1.18,0.57-1.96,0.92-2.36,1.06l-1.2-2.86c1.03-0.46,2.03-0.97,3-1.54c1.18-0.69,2.26-1.53,3.23-2.49
				c1.08-1.08,2.07-2.25,2.97-3.48c1.18-1.62,2.15-3.38,2.89-5.25c0.22-0.49,0.37-1.01,0.45-1.54c-0.05-0.54-0.21-1.06-0.45-1.54
				l-12.99-32.64L363.23,31.27z"/>
		</g>
	</g>
	<path id="Path_27" class="st6" d="M938.89,71.55V49.75h3.7v1.75c1.19-1.45,2.99-2.25,4.86-2.17c4.26,0,7.32,3.4,7.32,8.26
		s-3.07,8.32-7.32,8.32c-1.88,0.07-3.68-0.75-4.86-2.21v7.86L938.89,71.55L938.89,71.55z M942.59,55.58v4.01
		c0.71,1.7,2.38,2.81,4.22,2.81c2.45,0,4.1-1.83,4.1-4.84c0-2.97-1.65-4.78-4.1-4.78C944.97,52.76,943.3,53.86,942.59,55.58"/>
	<path id="Path_28" class="st6" d="M957.16,60.96c-0.11-2.54,1.84-4.7,4.38-4.84l6.29-0.8v-0.78c0.1-0.69-0.37-1.33-1.06-1.44
		c-0.1-0.01-0.2-0.02-0.3-0.01h-7.9v-3.36h8.04c3.2,0,4.95,1.57,4.95,4.34v11.36h-3.74v-1.91c-1.22,1.61-3.17,2.51-5.19,2.39
		c-2.72,0.28-5.16-1.7-5.44-4.42C957.17,61.31,957.16,61.14,957.16,60.96 M963.53,62.9c1.82,0.05,3.5-0.99,4.28-2.63v-1.97
		l-4.8,0.66c-1.33,0.18-2.07,0.89-2.07,2.04C960.94,62.22,961.88,62.91,963.53,62.9"/>
	<path id="Path_29" class="st6" d="M974.25,68.2h2.69c0.88,0.08,1.67-0.52,1.83-1.39l0.48-1.39l-5.71-15.7h3.86l3.56,10.94h0.08
		l3.4-10.94h3.8l-6.25,18.03c-0.85,2.47-1.97,3.8-4.72,3.8h-3.02L974.25,68.2L974.25,68.2z"/>
	<path id="Path_30" class="st2" d="M861.39,82.35c3.73,0.16,7.37-1.13,10.17-3.6c1.8-1.78,2.81-4.22,2.77-6.75
		c0.02-2.36-0.9-4.62-2.57-6.29c-1.96-1.84-4.42-3.05-7.08-3.48l-4.95-0.96c-2.05-0.38-3.22-1.41-3.22-2.83
		c0-1.87,1.81-3.16,4.7-3.16c1.62-0.07,3.19,0.51,4.38,1.61c0.67,0.73,1.1,1.65,1.23,2.63l7.13-1.61c-0.23-2.03-1.16-3.92-2.63-5.35
		c-2.77-2.54-6.43-3.9-10.19-3.78c-3.46-0.1-6.84,1.09-9.47,3.34c-1.94,1.79-3.03,4.32-3.02,6.95c-0.08,2.2,0.76,4.34,2.31,5.91
		c1.9,1.73,4.23,2.91,6.75,3.42l4.88,1.17c2.45,0.58,3.54,1.49,3.54,3.1c0,1.99-1.81,3.16-4.76,3.16c-1.84,0.09-3.63-0.59-4.95-1.87
		c-0.78-0.79-1.24-1.84-1.29-2.95l-7.34,1.61c0.23,2.16,1.21,4.17,2.77,5.67C853.5,81.03,857.39,82.5,861.39,82.35 M915.7,82.35
		c4.06,0.12,7.99-1.39,10.93-4.18c1.85-1.78,3.18-4.02,3.86-6.49l-7.52-2.51c-0.34,1.27-1.03,2.43-1.99,3.34
		c-1.42,1.35-3.33,2.06-5.29,1.99c-2.14,0.01-4.2-0.82-5.73-2.31c-1.63-1.81-2.49-4.19-2.39-6.63c-0.11-2.44,0.75-4.82,2.39-6.63
		c1.51-1.49,3.55-2.3,5.67-2.25c1.89-0.09,3.73,0.61,5.08,1.93c0.91,0.96,1.57,2.12,1.93,3.4l7.64-2.57
		c-0.64-2.39-1.88-4.59-3.6-6.37c-3.03-2.88-7.08-4.43-11.26-4.3c-4.35-0.05-8.55,1.64-11.64,4.7c-6.4,6.82-6.34,17.45,0.12,24.2
		c3.14,3.07,7.37,4.75,11.76,4.68 M889.7,82.35c2.4,0.13,4.78-0.55,6.75-1.93v-6.95c-1.27,0.87-2.78,1.32-4.32,1.29
		c-1.96,0.35-3.84-0.95-4.19-2.91c-0.08-0.44-0.08-0.9,0.01-1.34V41.06h-8.49v8.69h16.99v8.24h-16.99V72.6
		c-0.12,2.58,0.79,5.1,2.51,7.01C884.08,81.52,886.87,82.5,889.7,82.35"/>
	<g>
		<path class="st6" d="M1122.58,94.15l-3.01-3.71v3.71h-9.88v-6.33c-1.32,0.67-2.79,0.97-4.27,0.88h-3.36v5.45h-14.95l-2.67-3.56
			l-2.72,3.56h-24.75V70.62h24.91l2.67,3.48l2.76-3.48h90.42V23.7h-149.86v29.19l5.62-13.1h9.72l3.19,7.34v-7.34h12.08l1.9,5.3
			l1.84-5.3h54.21v2.67c2.12-1.75,4.79-2.69,7.53-2.67l17.59,0.06l3.13,7.24v-7.3h10.11l2.78,4.16v-4.16h10.19v23.53h-10.19
			l-2.67-4.17v4.17h-14.85l-1.49-3.71h-3.99l-1.47,3.71h-10.07c-2.45-0.03-4.8-0.96-6.61-2.61v2.61h-15.18l-3.01-3.71v3.71h-56.46
			l-1.49-3.7h-3.98l-1.48,3.71h-6.94v35.9h149.86v-6.7c-1.53,0.97-3.28,1.53-5.09,1.62H1122.58z"/>
		<polygon class="st6" points="1177.75,70.62 1177.75,92.52 1177.75,92.52 1177.75,70.62 		"/>
		<polygon class="st6" points="1136.59,46.79 1136.59,46.79 1136.59,46.79 		"/>
		<path class="st6" d="M1043.77,60.31h5.04l-7.57-17.62h-5.74l-7.58,17.62h4.93l1.4-3.53h8.13L1043.77,60.31z M1035.82,52.96
			l2.48-6.16l2.48,6.16H1035.82z"/>
		<polygon class="st6" points="1053.73,47.33 1058.41,60.31 1062.28,60.31 1066.95,47.33 1066.95,60.31 1071.36,60.31 
			1071.36,42.69 1064.4,42.69 1060.42,54.07 1056.34,42.71 1049.33,42.69 1049.33,60.3 1053.73,60.31 		"/>
		<polygon class="st6" points="1088.74,56.47 1078.82,56.47 1078.82,53.34 1088.5,53.34 1088.5,49.64 1078.82,49.64 1078.82,46.63 
			1088.74,46.63 1088.74,42.69 1074.37,42.69 1074.37,60.3 1088.74,60.3 		"/>
		<path class="st6" d="M1095.69,54.05h1.85l5.28,6.26h5.38l-5.79-6.49c2.77-0.28,4.87-2.63,4.83-5.41c0.02-3.15-2.52-5.71-5.66-5.73
			c-0.17,0-0.33,0.01-0.49,0.02l-9.8,0v17.62h4.41V54.05z M1095.7,46.63h5.03c1.08-0.04,2,0.78,2.09,1.86
			c-0.07,1.06-0.96,1.87-2.02,1.85h-5.1V46.63z"/>
		<rect x="1109.05" y="42.69" class="st6" width="4.5" height="17.62"/>
		<path class="st6" d="M1123.24,60.3h0.96l0.01,0l1.85-3.85h-1.16c-0.35,0.04-0.69,0.04-1.04-0.01c-2.36-0.31-4.03-2.47-3.72-4.84
			c-0.02-0.13-0.03-0.27-0.03-0.41c-0.06-2.34,1.8-4.29,4.14-4.35h5.05v-4.17h-4.87c-5.93,0-8.75,3.72-8.75,8.88
			C1115.69,56.6,1118.54,60.3,1123.24,60.3z"/>
		<path class="st6" d="M1131.15,60.31l1.4-3.53h8.13l1.39,3.53h5.04l-7.57-17.62h-5.75l-7.58,17.62H1131.15z M1136.59,46.79
			L1136.59,46.79L1136.59,46.79L1136.59,46.79l2.48,6.16h-4.96L1136.59,46.79z"/>
		<polygon class="st6" points="1152.02,48.95 1159.35,60.3 1164.77,60.3 1164.77,42.69 1160.37,42.69 1160.37,53.76 1153.22,42.69 
			1147.62,42.69 1147.62,60.3 1152.02,60.3 		"/>
		<polygon class="st6" points="1060,91.13 1074.37,91.14 1074.37,87.31 1064.45,87.31 1064.45,84.18 1074.13,84.18 1074.13,80.47 
			1064.45,80.47 1064.45,77.46 1074.37,77.46 1074.37,73.52 1060,73.52 		"/>
		<polygon class="st6" points="1130.42,91.13 1144.79,91.14 1144.79,87.31 1134.87,87.31 1134.87,84.18 1144.51,84.18 
			1144.51,80.47 1134.87,80.47 1134.87,77.46 1144.79,77.46 1144.79,73.52 1130.42,73.52 		"/>
		<polygon class="st6" points="1088.86,73.52 1084.57,79.03 1080.31,73.52 1074.76,73.52 1081.92,82.43 1074.93,91.13 
			1080.39,91.13 1084.43,85.71 1088.58,91.13 1094.13,91.13 1087.12,82.33 1094.19,73.52 		"/>
		<path class="st6" d="M1105.06,73.5c-0.23-0.01-0.45,0-0.68,0.02l-9.73,0v17.62h4.52v-5.56h4.64c3.92,0,6.9-2.08,6.9-6.13
			C1110.79,76.24,1108.26,73.58,1105.06,73.5z M1104.18,81.57c-0.05,0-0.1,0-0.14-0.01h-4.87V77.5h4.88c1.09-0.1,2.06,0.7,2.17,1.79
			c0.01,0.08,0.01,0.16,0.01,0.23C1106.22,80.66,1105.31,81.57,1104.18,81.57z"/>
		<path class="st6" d="M1128.57,79.23c0.02-3.15-2.52-5.71-5.66-5.73c-0.17,0-0.33,0.01-0.5,0.02h-9.8v17.62h4.4v-6.26h1.86
			l5.28,6.26h5.38l-5.79-6.49C1126.51,84.37,1128.61,82.02,1128.57,79.23z M1122.12,81.17h-5.1v-3.71h5.03
			c1.08-0.04,2,0.78,2.09,1.85C1124.07,80.37,1123.18,81.18,1122.12,81.17z"/>
		<path class="st6" d="M1156.42,80.46h-4.17c-0.03,0-0.06,0-0.1,0c-0.84,0-1.53-0.69-1.53-1.53c0-0.71,0.43-1.45,1.85-1.45h7.42
			l1.85-3.96h-8.57c-5.15,0-6.91,2.72-6.91,5.55c-0.02,0.28-0.02,0.57,0.01,0.85c0.26,2.71,2.67,4.69,5.38,4.43h3.98
			c1.3,0,1.87,0.75,1.87,1.49c0,0.77-0.57,1.48-1.87,1.48h-8.81v3.82l9.38-0.01c0.27,0.02,0.54,0.03,0.82,0.01
			c2.91-0.19,5.12-2.7,4.93-5.62C1161.96,82.65,1160.28,80.46,1156.42,80.46z"/>
		<path class="st6" d="M1172.22,80.46h-3.8c-0.03,0-0.06,0-0.1,0c-0.84,0-1.53-0.69-1.53-1.53c0-0.71,0.44-1.45,1.86-1.45h7.25
			l1.85-3.96h-8.41c-5.15,0-6.91,2.72-6.91,5.55c-0.02,0.28-0.02,0.57,0.01,0.85c0.26,2.71,2.67,4.69,5.38,4.43h3.61
			c1.31,0,1.87,0.75,1.87,1.49c0,0.77-0.56,1.48-1.87,1.48h-8.44v3.82l9.01-0.01c0.27,0.02,0.55,0.03,0.82,0.01
			c2.91-0.19,5.12-2.71,4.92-5.62C1177.75,82.65,1176.08,80.46,1172.22,80.46z"/>
	</g>
	<g id="Group_5" transform="translate(712.548 0.001)">
		<path id="Path_49" class="st2" d="M641.88,112.5v0.28h0.26c0.05,0,0.1-0.01,0.14-0.04c0.03-0.02,0.05-0.06,0.05-0.11
			c0-0.04-0.02-0.08-0.05-0.1c-0.04-0.03-0.09-0.04-0.14-0.04L641.88,112.5L641.88,112.5z M642.14,112.31
			c0.11-0.01,0.22,0.03,0.31,0.09c0.07,0.06,0.11,0.15,0.11,0.24c0,0.08-0.03,0.16-0.09,0.21c-0.07,0.06-0.16,0.1-0.25,0.1
			l0.34,0.39h-0.27l-0.32-0.39h-0.1v0.39h-0.22v-1.04L642.14,112.31L642.14,112.31z M642.07,113.71c0.12,0,0.23-0.02,0.34-0.07
			c0.1-0.04,0.2-0.11,0.28-0.19c0.08-0.08,0.14-0.17,0.19-0.28c0.19-0.44-0.02-0.96-0.46-1.15c-0.11-0.04-0.22-0.07-0.34-0.06
			c-0.12,0-0.23,0.02-0.34,0.06c-0.11,0.04-0.2,0.11-0.28,0.19c-0.25,0.26-0.32,0.64-0.19,0.97c0.04,0.1,0.11,0.2,0.19,0.28
			c0.08,0.08,0.18,0.14,0.28,0.19C641.83,113.69,641.95,113.72,642.07,113.71 M642.07,111.72c0.3,0,0.6,0.12,0.81,0.34
			c0.33,0.32,0.42,0.81,0.24,1.23c-0.06,0.13-0.14,0.26-0.24,0.36c-0.11,0.1-0.23,0.18-0.36,0.24c-0.14,0.06-0.29,0.09-0.45,0.09
			c-0.16,0-0.31-0.03-0.45-0.09c-0.14-0.06-0.26-0.14-0.37-0.24c-0.1-0.11-0.19-0.23-0.24-0.37c-0.18-0.42-0.08-0.91,0.24-1.23
			c0.1-0.1,0.23-0.19,0.37-0.24C641.76,111.74,641.91,111.71,642.07,111.72 M536.37,107.69c0.11-1.89,1.73-3.34,3.62-3.23
			c1.89,0.11,3.34,1.73,3.23,3.62c-0.1,1.81-1.6,3.23-3.41,3.23c-1.88,0.03-3.42-1.47-3.44-3.35
			C536.36,107.88,536.36,107.79,536.37,107.69 M545.54,107.69v-5.67h-2.46v1.38c-0.85-1.1-2.19-1.72-3.58-1.66
			c-3.28,0.19-5.79,3.01-5.6,6.29c0.18,3.02,2.58,5.42,5.6,5.6c1.39,0.06,2.72-0.56,3.58-1.66v1.38h2.46L545.54,107.69
			L545.54,107.69z M628.78,107.69c0.11-1.89,1.73-3.34,3.62-3.23c1.89,0.11,3.34,1.73,3.23,3.62c-0.1,1.81-1.6,3.23-3.41,3.24
			c-1.88,0.03-3.42-1.47-3.45-3.35C628.77,107.88,628.78,107.79,628.78,107.69 M637.96,107.69V97.47h-2.46v5.93
			c-0.85-1.1-2.19-1.72-3.58-1.66c-3.28,0.19-5.79,3.01-5.6,6.29c0.18,3.02,2.58,5.42,5.6,5.6c1.39,0.06,2.72-0.56,3.58-1.66v1.38
			h2.46V107.69z M576.12,103.96c1.55-0.03,2.83,1.2,2.87,2.75h-5.88C573.2,105.12,574.54,103.9,576.12,103.96 M576.17,101.75
			c-3.28,0.22-5.77,3.05-5.55,6.33c0.2,3.04,2.67,5.45,5.72,5.56c1.69,0.06,3.34-0.51,4.64-1.59l-1.21-1.83
			c-0.94,0.75-2.1,1.17-3.3,1.19c-1.69,0.14-3.19-1.09-3.39-2.78h8.41c0.02-0.31,0.05-0.62,0.05-0.95
			C581.53,104.16,579.35,101.75,576.17,101.75 M605.92,107.69c0.11-1.89,1.73-3.34,3.62-3.23c1.89,0.11,3.34,1.73,3.23,3.62
			c-0.1,1.81-1.6,3.23-3.41,3.23c-1.88,0.03-3.42-1.47-3.44-3.35C605.91,107.88,605.91,107.78,605.92,107.69 M615.09,107.69v-5.66
			h-2.47v1.38c-0.85-1.1-2.19-1.72-3.58-1.66c-3.28,0.19-5.79,3.01-5.6,6.29c0.18,3.02,2.58,5.42,5.6,5.6
			c1.39,0.06,2.72-0.56,3.58-1.66v1.38h2.46L615.09,107.69L615.09,107.69z M592.01,107.69c-0.13,3.16,2.33,5.82,5.49,5.95
			c0.19,0.01,0.37,0.01,0.56,0c1.48,0.07,2.94-0.41,4.08-1.36l-1.19-1.99c-0.85,0.65-1.89,1.01-2.97,1.02
			c-2-0.11-3.53-1.83-3.42-3.84c0.11-1.84,1.58-3.31,3.42-3.42c1.07,0.01,2.11,0.37,2.97,1.02l1.19-1.99
			c-1.14-0.95-2.6-1.43-4.08-1.36c-3.16-0.18-5.86,2.23-6.04,5.39c-0.01,0.19-0.01,0.37,0,0.56 M623.78,101.72
			c-1.22-0.04-2.37,0.6-2.99,1.66v-1.37h-2.46v11.33h2.47v-6.35c0-1.87,0.81-2.92,2.42-2.92c0.53-0.01,1.05,0.09,1.54,0.29
			l0.76-2.32c-0.56-0.2-1.16-0.31-1.75-0.31 M557.72,102.91c-1.39-0.83-3-1.24-4.62-1.19c-2.87,0-4.72,1.38-4.72,3.63
			c0,1.85,1.38,2.99,3.91,3.34l1.16,0.17c1.36,0.19,1.99,0.55,1.99,1.19c0,0.88-0.9,1.38-2.58,1.38c-1.35,0.04-2.68-0.38-3.77-1.19
			l-1.16,1.92c1.43,1,3.15,1.52,4.9,1.47c3.27,0,5.17-1.54,5.17-3.7c0-1.99-1.49-3.03-3.96-3.39l-1.16-0.17
			c-1.07-0.14-1.92-0.35-1.92-1.11c0-0.83,0.81-1.33,2.16-1.33c1.24,0.02,2.46,0.35,3.53,0.97L557.72,102.91L557.72,102.91z
			 M589.51,101.72c-1.22-0.04-2.37,0.6-2.98,1.66V102h-2.44v11.33h2.46v-6.35c0-1.87,0.81-2.92,2.42-2.92
			c0.53-0.01,1.05,0.09,1.54,0.29l0.76-2.32C590.7,101.83,590.11,101.72,589.51,101.72 M568.49,102h-4.03v-3.44h-2.49V102h-2.3v2.25
			h2.3v5.17c0,2.63,1.02,4.19,3.93,4.19c1.09,0,2.16-0.3,3.08-0.88l-0.71-2.11c-0.66,0.39-1.41,0.61-2.18,0.64
			c-1.23,0-1.63-0.76-1.63-1.9v-5.11h4.03L568.49,102z M531.65,113.34v-7.11c0.16-2.32-1.59-4.34-3.92-4.5
			c-0.18-0.01-0.36-0.01-0.54,0c-1.6-0.1-3.12,0.67-3.98,2.01c-0.78-1.3-2.22-2.08-3.74-2.01c-1.33-0.07-2.59,0.57-3.32,1.68V102
			h-2.47v11.33h2.49v-6.29c-0.2-1.45,0.81-2.79,2.26-2.99c0.17-0.02,0.34-0.03,0.51-0.02c1.64,0,2.46,1.07,2.46,2.99v6.31h2.49
			v-6.29c-0.19-1.46,0.84-2.8,2.31-2.99c0.15-0.02,0.31-0.03,0.46-0.02c1.68,0,2.49,1.07,2.49,2.99v6.31L531.65,113.34z"/>
		<path id="Path_51" class="st2" d="M594.25,82.77h-37.34v-67.1h37.34L594.25,82.77z"/>
		<path id="Path_52" class="st6" d="M559.28,49.22c-0.01-13.09,6-25.46,16.3-33.55c-18.53-14.56-45.36-11.35-59.92,7.18
			c-14.56,18.53-11.35,45.36,7.18,59.92c15.47,12.16,37.26,12.16,52.73,0C565.27,74.69,559.27,62.32,559.28,49.22"/>
		<path id="Path_53" class="st1" d="M644.61,49.22c0,23.57-19.1,42.67-42.66,42.67c-9.57,0-18.85-3.21-26.37-9.12
			c18.53-14.57,21.74-41.39,7.18-59.92c-2.1-2.67-4.51-5.08-7.18-7.18c18.53-14.56,45.35-11.35,59.91,7.17
			C641.4,30.36,644.62,39.65,644.61,49.22"/>
	</g>
	<g>
		<path class="st0" d="M1524.15,52.54c-0.58,1.6-1.59,4.17-1.53,4.06c0,0-3.66,9.44-4.62,11.89h9.62
			c-0.47-2.13-2.69-12.28-2.69-12.28L1524.15,52.54z"/>
		<polygon class="st6" points="1448.94,83.56 1460.52,83.56 1467.78,41.03 1456.18,41.03 		"/>
		<path class="st6" d="M1491.16,58.1c-4.05-1.97-6.54-3.28-6.51-5.27c0-1.77,2.1-3.66,6.64-3.66c2.97-0.07,5.92,0.49,8.66,1.63
			l1.04,0.49l1.57-9.22l0.01,0c-3.33-1.21-6.85-1.81-10.39-1.79c-11.45,0-19.52,5.78-19.6,14.04c-0.06,6.12,5.76,9.52,10.16,11.55
			c4.52,2.08,6.03,3.41,6.01,5.28c-0.03,2.85-3.61,4.15-6.94,4.15c-3.76,0.11-7.49-0.65-10.91-2.23l-1.49-0.68l-1.63,9.52
			c4.13,1.53,8.51,2.29,12.91,2.27c12.19,0,20.1-5.7,20.19-14.53C1500.93,64.82,1497.84,61.14,1491.16,58.1z"/>
		<path class="st6" d="M1532.3,41.07h-8.96c-2.78,0-4.85,0.76-6.07,3.53l-17.22,38.98h12.18c0,0,1.98-5.24,2.44-6.39
			c1.33,0,13.15,0.02,14.85,0.02c0.34,1.49,1.41,6.37,1.41,6.37h10.76L1532.3,41.07z M1518.01,68.49
			c0.96-2.45,4.62-11.89,4.62-11.89c-0.06,0.11,0.95-2.46,1.53-4.06l0.78,3.67c0,0,2.22,10.15,2.69,12.28H1518.01z"/>
		<path class="st6" d="M1439.22,41.06l-11.35,29.01l-1.21-5.89c0,0,0,0,0-0.01l0,0.01c-2.74-7.03-8.15-13.24-15.98-17.59
			l10.31,36.95l12.27-0.02l18.25-42.46H1439.22z"/>
		<path class="st1" d="M1426.65,64.16l-4.06-19.54c-0.7-2.69-2.74-3.5-5.25-3.59h0h-18.7l-0.14,0.88c4.55,1.1,8.61,2.69,12.17,4.66
			l-0.07-0.25C1417.96,50.01,1424.54,57.37,1426.65,64.16z"/>
	</g>
	<g id="Group_7" transform="translate(334.311 -15.786)">
		<path id="Path_59" class="st10" d="M1310.55,49.97h-7.47c-3.55,9.8-9.47,26.04-12.73,34.98c-0.32,0.86-0.73,1.68-1.22,2.46h0.33
			l0,0h4.84c1.4-0.08,2.67-0.87,3.36-2.09c0.11-0.19,0.21-0.39,0.29-0.59l3.11-8.55l0,0C1304.92,65.56,1310.17,51.13,1310.55,49.97"
			/>
		<path id="Path_60" class="st1" d="M1390.02,68.69l-3.12,8.56c-0.58,1.52-1.99,2.56-3.62,2.67h-5.18c0.54-0.84,0.98-1.74,1.32-2.67
			l3.12-8.55h-7.5l-3.11,8.55c-0.59,1.52-2,2.56-3.63,2.67h-2.5h-2.69c0.54-0.84,0.98-1.74,1.32-2.67l3.12-8.56h-7.49l-3.12,8.56
			c-0.59,1.52-2,2.56-3.62,2.67h-23.94c0.54-0.82,0.99-1.7,1.34-2.62l0.79-2.19c2.04-5.61-0.86-10.16-6.46-10.16h-8.53l-2.72,7.49
			h8.53c1-0.06,1.86,0.7,1.92,1.7c0.02,0.34-0.05,0.68-0.22,0.97l-0.83,2.19c-0.59,1.5-1.99,2.53-3.6,2.62h-12.31l-2.72,7.49h76.03
			c6.16-0.41,11.53-4.35,13.78-10.11l3.14-8.61L1390.02,68.69z"/>
		<path id="Path_61" class="st1" d="M1271.23,87.41h-19.79l2.72-7.49h19.79c1.63-0.11,3.05-1.15,3.65-2.67l0.77-2.14
			c0.48-0.88,0.15-1.98-0.72-2.46c-0.3-0.16-0.64-0.24-0.97-0.22h-12.28l2.72-7.49h12.29c5.61,0,8.5,4.56,6.47,10.16l-0.76,2.14
			C1282.82,83.03,1277.43,86.99,1271.23,87.41"/>
		<path id="Path_62" class="st10" d="M1304.55,95.95h-0.92l-0.34,0.94h0.92L1304.55,95.95z"/>
		<path id="Path_63" class="st10" d="M1306.48,98.73c-0.11,0.37-0.35,0.68-0.68,0.88c-0.3,0.13-0.62,0.18-0.94,0.16h-2.31
			c-0.37,0.04-0.75-0.06-1.06-0.27c-0.24-0.22-0.26-0.61-0.06-1.16l0.53-1.44h-0.94l-0.53,1.44c-0.58,1.59,0.02,2.38,1.81,2.38h3.06
			c0.83,0,1.56-0.55,1.8-1.35l0.91-2.48h-0.93L1306.48,98.73z"/>
		<path id="Path_64" class="st10" d="M1306.16,95.95h-0.92l-0.34,0.94h0.92L1306.16,95.95z"/>
		<path id="Path_65" class="st10" d="M1312.47,98.86c0.11-0.31,0.29-0.59,0.53-0.82c0.22-0.23,0.53-0.36,0.85-0.37
			c0.45,0,0.66,0.22,0.65,0.65l0.95-0.39c-0.01-0.62-0.52-1.11-1.14-1.1c-0.04,0-0.08,0-0.12,0.01c-0.59,0.01-1.16,0.21-1.62,0.59
			c-0.49,0.37-0.86,0.87-1.07,1.44c-0.11,0.28-0.16,0.58-0.14,0.89h-1.53c-0.24,0.03-0.48-0.02-0.68-0.14
			c-0.13-0.13-0.12-0.4,0.03-0.81l1.29-3.52h-0.94l-1.43,3.91c-0.17,0.34-0.19,0.74-0.06,1.1c0.18,0.32,0.53,0.49,0.89,0.44h5.52
			l0.35-0.96h-2.38c-0.12-0.29-0.11-0.62,0.03-0.9"/>
		<path id="Path_66" class="st10" d="M1325.36,95.17h-0.92l-0.34,0.94h0.92L1325.36,95.17z"/>
		<path id="Path_67" class="st10" d="M1324.3,96.81c-1.19,0.05-2.23,0.82-2.62,1.95c-0.13,0.32-0.17,0.66-0.12,1h-2.3l0.36-0.98
			c0.4-1.1-0.03-1.9-1.06-1.9c-1.16,0.04-2.17,0.78-2.57,1.87c-0.41,1.11,0.11,1.96,1.13,1.96h0.9c-0.25,0.41-0.69,0.66-1.17,0.65
			l-0.27,0.74c0.99,0.06,1.92-0.49,2.35-1.39h3.96c1.18-0.05,2.21-0.82,2.6-1.94C1325.87,97.68,1325.42,96.81,1324.3,96.81
			 M1318.31,99.76h-0.83c-0.51,0-0.73-0.47-0.51-1.05c0.18-0.55,0.68-0.93,1.26-0.95c0.49,0,0.65,0.35,0.51,0.85L1318.31,99.76z
			 M1323.2,99.85c-0.57,0-0.77-0.5-0.55-1.1c0.17-0.59,0.68-1.02,1.3-1.08c0.57,0,0.78,0.47,0.55,1.11
			C1324.32,99.37,1323.81,99.79,1323.2,99.85"/>
		<path id="Path_68" class="st10" d="M1341.62,98.88c-0.07,0.21-0.17,0.42-0.29,0.61c-0.18,0.19-0.44,0.3-0.7,0.28h-2.14
			c0.26-0.28,0.46-0.61,0.56-0.98l1.28-3.5h-0.94l-1.3,3.55c-0.07,0.23-0.19,0.45-0.34,0.64c-0.17,0.19-0.41,0.3-0.67,0.29h-1.44
			l0.09-0.24c0.21-0.45,0.21-0.96,0-1.41c-0.24-0.4-0.69-0.62-1.16-0.57c-0.57,0-1.12,0.2-1.57,0.55c-0.47,0.35-0.83,0.84-1.03,1.39
			c-0.03,0.09-0.07,0.19-0.09,0.28h-1.96c0.52-1.44,0.29-2.35-0.7-2.73c-0.15-0.06-0.3-0.1-0.46-0.12c-0.12,0-0.41-0.02-0.87-0.02
			l-0.31,0.86c0.28-0.01,0.55,0.02,0.82,0.08c0.78,0.19,0.98,0.83,0.58,1.93h-3.06l-0.35,0.96h6.34c0.2,0.5,0.71,0.8,1.24,0.73
			c0.67,0,1.31-0.27,1.79-0.73h5.54c0.93,0.01,1.75-0.62,1.97-1.53l1.43-3.91h-0.94L1341.62,98.88z M1334.27,100.26
			c-0.21,0.2-0.5,0.32-0.79,0.32c-0.58,0-0.77-0.5-0.55-1.1c0.1-0.28,0.27-0.54,0.49-0.74c0.22-0.21,0.5-0.33,0.81-0.34
			c0.25-0.03,0.49,0.11,0.59,0.34c0.07,0.25,0.05,0.52-0.05,0.77C1334.66,99.79,1334.49,100.05,1334.27,100.26"/>
		<path id="Path_69" class="st10" d="M1348.35,97.03c-0.15-0.06-0.3-0.1-0.46-0.12c-0.12,0-0.41-0.02-0.87-0.02l-0.31,0.86
			c0.28-0.01,0.55,0.02,0.82,0.08c0.78,0.19,0.98,0.83,0.57,1.93h-3.06l-0.35,0.96h4l0.35-0.96
			C1349.57,98.32,1349.34,97.41,1348.35,97.03"/>
		<path id="Path_70" class="st10" d="M1349.58,100.72h0.94l1.99-5.45h-0.94L1349.58,100.72z"/>
		<path id="Path_71" class="st10" d="M1363.28,98.84c-0.23,0.61-0.58,0.93-1.06,0.93h-0.92c0.27-0.29,0.46-0.64,0.57-1.02l0.68-1.84
			h-0.95l-0.71,1.93c-0.23,0.62-0.58,0.94-1.06,0.94h-0.88l0.02-0.05c0.23-0.29,0.4-0.62,0.51-0.98l0.68-1.84h-0.96l-0.68,1.87
			c-0.24,0.67-0.6,0.99-1.08,0.99h-1.78c0.52-1.44,0.29-2.35-0.7-2.73c-0.15-0.06-0.3-0.1-0.46-0.12c-0.12,0-0.41-0.02-0.87-0.02
			l-0.31,0.86c0.28-0.01,0.55,0.02,0.82,0.08c0.78,0.19,0.98,0.83,0.57,1.93h-3.06l-0.35,0.96h10.62c1.13-0.12,2.06-0.92,2.37-2.01
			l0.67-1.82H1364L1363.28,98.84z"/>
		<path id="Path_72" class="st10" d="M1371.91,96.89h-2.38c-1.31,0.08-2.43,0.98-2.79,2.24l-1.1,2.99h0.94l1.02-2.8
			c0.34-0.92,0.94-1.47,1.58-1.47h0.69c-0.26,0.29-0.47,0.63-0.6,0.99c-0.4,1.1,0.06,1.96,1.19,1.96c1.18-0.06,2.2-0.83,2.6-1.94
			C1373.47,97.76,1373.02,96.89,1371.91,96.89 M1370.81,99.95c-0.57,0-0.78-0.49-0.56-1.1c0.17-0.59,0.68-1.02,1.3-1.08
			c0.58,0,0.78,0.48,0.55,1.11C1371.92,99.46,1371.41,99.88,1370.81,99.95"/>
		<path id="Path_73" class="st10" d="M1382.78,95.19h-0.92l-0.34,0.94h0.92L1382.78,95.19z"/>
		<path id="Path_74" class="st10" d="M1387.76,95.19h-0.92l-0.34,0.94h0.92L1387.76,95.19z"/>
		<path id="Path_75" class="st10" d="M1386.2,96.9l-0.73,1.98c-0.07,0.21-0.17,0.42-0.29,0.61c-0.18,0.19-0.44,0.3-0.7,0.28h-1.51
			c0.68-1.91,0.3-2.89-1.13-2.89c-1.15,0.11-2.22,0.62-3.02,1.46l1.23-3.06h-0.93l-1.64,4.48h-1.93c-0.24,0.03-0.48-0.02-0.68-0.14
			c-0.13-0.13-0.13-0.4,0.03-0.81l1.29-3.52h-0.94l-1.43,3.91c-0.17,0.34-0.19,0.74-0.06,1.1c0.18,0.32,0.53,0.49,0.89,0.44h9.67
			c0.93,0.01,1.75-0.62,1.97-1.53l0.85-2.3L1386.2,96.9z M1381.99,99.76h-3.76c0.77-1.07,1.93-1.81,3.23-2.04
			c0.81,0,1.04,0.69,0.65,1.77c-0.03,0.09-0.06,0.17-0.11,0.27"/>
	</g>
	<g id="Group_8" transform="translate(1005.704 -163.705)">
		<rect id="Rectangle_1" x="764.06" y="228.43" class="st6" width="63.44" height="21.13"/>
		<rect id="Rectangle_2" x="764.06" y="199.59" class="st1" width="63.44" height="21.15"/>
		<path id="Path_76" class="st2" d="M890.94,245.27l-0.28,0.06c-0.67,0.16-1.36,0.25-2.05,0.26c-1.66,0-3.62-0.85-3.62-4.84
			c0-2.05,0.34-4.78,3.43-4.78h0.02c0.77,0.05,1.53,0.2,2.26,0.43l0.24,0.07V245.27L890.94,245.27z M891.45,225.36l-0.51,0.09v7.38
			l-0.45-0.13l-0.13-0.04c-0.91-0.29-1.85-0.46-2.81-0.49c-6.18,0-7.47,4.67-7.47,8.59c0,5.37,3.01,8.46,8.27,8.46
			c1.87,0.05,3.74-0.21,5.52-0.77c1.3-0.19,2.21-1.37,2.07-2.68v-21.19C894.47,224.85,892.94,225.11,891.45,225.36"/>
		<path id="Path_77" class="st2" d="M909.31,245.4l-0.26,0.07l-0.94,0.24c-0.74,0.21-1.51,0.33-2.28,0.36
			c-1.45,0-2.32-0.72-2.32-1.94c0-0.79,0.36-2.13,2.73-2.13h3.07V245.4L909.31,245.4z M907.14,232.08
			c-2.14,0.04-4.26,0.41-6.29,1.09l-1.58,0.47l0.53,3.58l1.54-0.51c1.66-0.53,3.4-0.83,5.14-0.87c0.68,0,2.75,0,2.75,2.24v0.98
			h-2.89c-5.26,0-7.69,1.68-7.69,5.27c0,3.07,2.24,4.92,6.01,4.92c1.41-0.04,2.81-0.23,4.18-0.57l0.07-0.02l0.07,0.02l0.47,0.07
			c1.47,0.26,2.99,0.53,4.48,0.81v-11.75C913.96,234.01,911.66,232.07,907.14,232.08"/>
		<path id="Path_78" class="st2" d="M872.71,245.4l-0.26,0.07l-0.94,0.24c-0.74,0.21-1.51,0.33-2.28,0.36
			c-1.45,0-2.32-0.72-2.32-1.94c0-0.79,0.36-2.13,2.72-2.13h3.07v3.4L872.71,245.4z M870.56,232.08c-2.14,0.04-4.26,0.41-6.29,1.09
			l-1.58,0.47l0.53,3.58l1.54-0.51c1.66-0.53,3.4-0.83,5.14-0.87c0.68,0,2.75,0,2.75,2.24v0.98h-2.89c-5.26,0-7.7,1.68-7.7,5.27
			c0,3.07,2.24,4.92,6.03,4.92c1.41-0.04,2.81-0.23,4.18-0.57l0.07-0.02l0.07,0.02l0.45,0.07c1.49,0.26,2.99,0.53,4.48,0.83v-11.75
			C877.38,234,875.08,232.07,870.56,232.08"/>
		<path id="Path_79" class="st2" d="M852.87,232.12c-1.76,0.02-3.49,0.4-5.1,1.13l-0.19,0.1l-0.17-0.13
			c-1.37-0.84-2.97-1.23-4.58-1.11c-1.83,0-3.65,0.28-5.41,0.81c-1.6,0.49-2.22,1.26-2.22,2.72v13.42h5.01v-12.41l0.24-0.07
			c0.71-0.26,1.45-0.4,2.21-0.4c1.09-0.13,2.07,0.65,2.2,1.74c0.02,0.18,0.02,0.36-0.01,0.54v10.62h4.93v-10.83
			c0.01-0.37-0.05-0.74-0.15-1.09l-0.17-0.32l0.34-0.15c0.77-0.34,1.61-0.52,2.45-0.51c1.1-0.12,2.08,0.68,2.2,1.77
			c0.02,0.17,0.01,0.34-0.01,0.51v10.62h4.92v-11.11c0-3.94-2.11-5.84-6.48-5.84"/>
		<path id="Path_80" class="st2" d="M905.61,213.38c-0.98,0-1.96-0.09-2.92-0.26l-0.28-0.06v-7.25c0.01-0.35-0.04-0.7-0.13-1.04
			l-0.15-0.3l0.32-0.13c0.07-0.04,0.15-0.06,0.24-0.1l0.06-0.04l0.34-0.11c0.04-0.02,0.09-0.03,0.13-0.04
			c0.85-0.2,1.71-0.3,2.58-0.3h0.02c3.07,0,3.43,2.73,3.43,4.79C909.23,212.53,907.25,213.38,905.61,213.38 M905.6,199.59h-0.13
			c-2.89,0-5.84,0.79-6.89,2.34c-0.59,0.81-0.91,1.8-0.9,2.81l0,0v7.47c0.02,0.32-0.03,0.64-0.15,0.94l-0.17,0.32h-9.1v-5.2h-0.01
			c-0.11-5.48-3.35-8.49-8.04-8.49h-4.58c-0.19,1.34-0.34,2.28-0.53,3.62h4.56c2.39,0,3.65,2.04,3.65,5.16v5.24l-0.32-0.17
			c-0.35-0.11-0.71-0.16-1.07-0.15h-7.87c-0.15,1-0.34,2.3-0.55,3.6h24.21c0.83-0.17,1.79-0.32,2.62-0.45
			c1.62,0.63,3.34,0.94,5.07,0.92c5.26,0,8.66-3.52,8.66-8.95C914.02,203.22,910.72,199.7,905.6,199.59"/>
		<path id="Path_81" class="st2" d="M863.16,219.27h0.23c5.26,0,7.7-1.73,7.7-6.01c0.02-3.04-2.42-5.52-5.46-5.54
			c-0.18,0-0.36,0.01-0.55,0.02h-4.84c-1.14,0.13-2.18-0.69-2.31-1.84c-0.01-0.13-0.02-0.26-0.01-0.39c0-0.94,0.36-2.11,2.73-2.11
			h10.59c0.23-1.37,0.34-2.24,0.55-3.62h-11c-5.12,0-7.7,2.15-7.7,5.73c0,3.54,2.24,5.39,6.01,5.39h4.84
			c1.26-0.02,2.3,0.99,2.32,2.25c0,0.03,0,0.07,0,0.1c0.05,1.31-0.97,2.4-2.28,2.45c-0.15,0.01-0.3,0-0.44-0.02h-0.81l-15.5-0.04
			h-2.82c-2.39,0-4.08-1.36-4.08-4.5v-2.17c0-3.28,1.3-5.31,4.08-5.31h4.6c0.21-1.39,0.34-2.28,0.53-3.6h-6.28
			c-4.69,0-7.93,3.15-8.04,8.63l0,0v2.45c0.11,5.48,3.35,8.1,8.04,8.1h4.59l8.4,0.02L863.16,219.27L863.16,219.27z"/>
	</g>
</g>
</svg>
